<svg xmlns="http://www.w3.org/2000/svg" viewBox="0 0 64 64">
  <path fill="#155EEF" d="M6 2h40a16 16 0 0 1 16 16v28a16 16 0 0 1-16 16H22A20 20 0 0 1 2 42V6a4 4 0 0 1 4-4Z"/>
  <path fill="#fff" d="M21 41c-7 0-12-4.7-12-11.7 0-7.2 5.2-11.8 12.2-11.8 3.3 0 6.2 1 8.4 3l-3.7 4.6a6.8 6.8 0 0 0-4.5-1.6c-3.4 0-5.7 2.3-5.7 5.8 0 3.6 2.3 6 5.9 6 1.7 0 3.3-.6 4.5-1.7l3.6 4.6A12.2 12.2 0 0 1 21 41Zm11.8 8V18.2h6.5V21c1.5-2.2 3.9-3.4 6.7-3.4 6 0 10.2 4.8 10.2 11.7C56.2 36.2 52 41 46 41c-2.6 0-5-1-6.5-2.8V49h-6.7Zm11.7-13.5c3 0 5.2-2.5 5.2-6.2s-2.2-6.2-5.2-6.2c-3.1 0-5.2 2.5-5.2 6.2s2.1 6.2 5.2 6.2Z"/>
</svg>
